<svg width="116" height="31" viewBox="0 0 116 31" fill="none" xmlns="http://www.w3.org/2000/svg">
<g clip-path="url(#clip0_4_6644)">
<path d="M4.63627 5.05286H0V9.70641H4.63627V5.05286Z" fill="white"/>
<path d="M54.8442 16.4626V24.4478V24.4522V24.4611V24.4744V24.4833V24.4921V24.4966V24.5054V24.5187V24.5276V24.5321V24.5365V24.5498V24.5631C54.7469 24.7317 54.5038 24.7672 54.3934 24.5986V24.5897V24.5809V24.572V24.5631V24.5542V24.5454L46.5351 7.49714C45.8854 5.86462 44.312 4.79551 42.5574 4.79551C40.1928 4.79551 38.2747 6.72081 38.2747 9.09416V25.2463C38.2747 25.9738 37.6869 26.5594 36.9664 26.5594H33.6959C33.2009 26.5594 32.7721 26.2843 32.5467 25.8762L29.5679 19.6656C29.3469 19.1687 29.4574 18.5831 29.8419 18.1972C30.823 17.3898 31.6584 16.3695 32.2904 15.1451L32.3257 15.0786L32.3611 15.012C33.0285 13.6279 33.3997 12.164 33.4616 10.6468V10.6291V10.6113V10.598V10.5847V10.567V10.5537V10.527V10.5093V10.5004V10.4871V10.4605V10.4428V10.4206V10.4028V10.3895V10.3718V10.3452V10.3363V10.2343C33.4616 8.55295 33.0859 6.93374 32.3523 5.41213L32.3169 5.34559L32.2816 5.28349C30.4518 1.84989 27.1061 0 23.2653 0C22.0588 0 20.8566 0 19.6544 0H15.7916C12.5122 0 9.85153 2.67058 9.85153 5.96222H9.84711V7.86534C9.83827 13.1799 9.84711 18.5077 9.84711 23.8223C9.84711 25.3927 8.71567 26.3642 7.23948 26.3642C5.7633 26.3642 4.64069 25.3927 4.64069 23.8223V17.5983V13.1843H0V23.8178C0 27.9923 3.22639 30.9956 7.23506 30.9911C11.2437 30.9911 14.479 27.9923 14.479 23.8178V5.96222C14.479 5.23912 15.0668 4.64911 15.7872 4.64911H23.2609C26.5492 4.64911 28.7679 7.05796 28.7679 10.2343V10.2609V10.2697V10.2919V10.3052V10.3185V10.3319V10.3407V10.3585V10.3718V10.3895V10.3984V10.4161V10.425V10.4472V10.4561V10.4694V10.4827V10.496V10.5049V10.5226V10.5404V10.5492V10.5537V10.5625V10.567V10.5803V10.5892V10.6069V10.6246V10.6335V10.6379C28.6618 12.1729 28.0254 13.4948 27 14.4131L26.9558 14.4531L26.9116 14.493L26.863 14.5329L26.8188 14.5684C26.8188 14.5684 26.779 14.5995 26.7613 14.6128L26.7304 14.6349L26.7083 14.6527C26.6774 14.6837 26.642 14.7104 26.6111 14.737H26.6287C26.5978 14.7592 26.5669 14.7813 26.5315 14.808C24.7062 16.5026 24.1846 19.1909 25.2144 21.4356L28.2375 27.7217H28.2464C29.1745 29.6514 31.1413 30.9823 33.4218 30.9823H36.9134C40.0823 30.9823 42.6546 28.4004 42.6546 25.2197V11.2546C42.6546 11.1037 42.7916 10.984 42.9242 10.984C43.0568 10.984 43.1319 11.055 43.1717 11.1525L51.03 28.1963C51.6797 29.8288 53.2531 30.898 55.0077 30.898C57.3722 30.898 59.2904 28.9727 59.2904 26.5993V5.0528H54.8574V16.4671L54.8442 16.4626Z" fill="white"/>
<path d="M65.6194 6.01547C65.889 6.01547 66.1011 5.8114 66.1011 5.52749C66.1011 5.24357 65.889 5.04395 65.6194 5.04395C65.3498 5.04395 65.1244 5.25688 65.1244 5.52749C65.1244 5.8114 65.341 6.01547 65.6194 6.01547Z" fill="white"/>
<path d="M65.9509 6.55225H65.2747V10.3452H65.9509V6.55225Z" fill="white"/>
<path d="M67.6746 8.24241C67.6746 7.56368 68.1033 7.08013 68.7177 7.08013C69.2657 7.08013 69.6812 7.47052 69.6812 8.23354V10.3452H70.353V8.04278C70.353 6.96036 69.6414 6.4502 68.8591 6.4502C68.3243 6.4502 67.8868 6.68531 67.6614 7.089V6.55223H66.9984V10.3452H67.6746V8.24241Z" fill="white"/>
<path d="M72.4302 9.83505C72.1076 9.83505 71.7275 9.6576 71.4932 9.23172L71.0071 9.6088C71.3165 10.1811 71.8822 10.4295 72.4081 10.4295C73.2214 10.4295 73.7694 9.9149 73.7694 9.27609C73.7694 8.8236 73.5219 8.52637 73.1285 8.32231C72.8324 8.16704 72.4567 8.02509 72.2048 7.90531C71.9662 7.78997 71.8866 7.61252 71.8866 7.45725C71.8866 7.2177 72.0678 6.99589 72.4302 6.99589C72.7131 6.99589 73.0225 7.11567 73.2434 7.43507L73.6722 7.02251C73.4114 6.61438 72.9296 6.41919 72.4744 6.41919C71.7142 6.41919 71.2413 6.88055 71.2413 7.47944C71.2413 7.82546 71.4181 8.18035 71.8203 8.40216C72.059 8.53081 72.5275 8.69938 72.7573 8.82803C72.9562 8.9345 73.102 9.0809 73.102 9.31158C73.102 9.58662 72.8501 9.83505 72.4302 9.83505Z" fill="white"/>
<path d="M74.7726 9.01429C74.7726 9.89709 75.1615 10.4383 75.9792 10.4383C76.3372 10.4383 76.7129 10.3318 76.9869 10.1189L76.735 9.59543C76.5316 9.72408 76.2974 9.8128 76.0587 9.8128C75.6079 9.8128 75.4444 9.52445 75.4444 9.06309V7.12891H76.7836V6.54778H75.4444V5.20361H74.7814V6.54778H74.1052V7.12891H74.777V9.00985L74.7726 9.01429Z" fill="white"/>
<path d="M77.8797 6.01547C78.1493 6.01547 78.3614 5.8114 78.3614 5.52749C78.3614 5.24357 78.1493 5.04395 77.8797 5.04395C77.6101 5.04395 77.3846 5.25688 77.3846 5.52749C77.3846 5.8114 77.6012 6.01547 77.8797 6.01547Z" fill="white"/>
<path d="M78.2111 6.55225H77.5349V10.3452H78.2111V6.55225Z" fill="white"/>
<path d="M79.5105 9.01429C79.5105 9.89709 79.8994 10.4383 80.7171 10.4383C81.0751 10.4383 81.4508 10.3318 81.7248 10.1189L81.4729 9.59543C81.2696 9.72408 81.0353 9.8128 80.7966 9.8128C80.3458 9.8128 80.1823 9.52445 80.1823 9.06309V7.12891H81.5215V6.54778H80.1823V5.20361H79.5194V6.54778H78.8431V7.12891H79.5105V9.00985V9.01429Z" fill="white"/>
<path d="M85.4594 8.81913V6.55225H84.7876V8.79695C84.7876 9.41358 84.4429 9.8084 83.8374 9.8084C83.2319 9.8084 82.8915 9.41358 82.8915 8.79695V6.55225H82.2153V8.81913C82.2153 9.8084 82.8518 10.4383 83.8374 10.4383C84.823 10.4383 85.4594 9.82171 85.4594 8.81913Z" fill="white"/>
<path d="M86.7147 9.01429C86.7147 9.89709 87.1037 10.4383 87.9213 10.4383C88.2793 10.4383 88.655 10.3318 88.929 10.1189L88.6771 9.59543C88.4738 9.72408 88.2395 9.8128 88.0009 9.8128C87.5501 9.8128 87.3865 9.52445 87.3865 9.06309V7.12891H88.7257V6.54778H87.3865V5.20361H86.7236V6.54778H86.0474V7.12891H86.7192V9.00985L86.7147 9.01429Z" fill="white"/>
<path d="M91.1698 10.4383C92.3322 10.4383 93.1498 9.55548 93.1498 8.442C93.1498 7.32852 92.3322 6.45459 91.1698 6.45459C90.0074 6.45459 89.1809 7.35513 89.1809 8.442C89.1809 9.52886 89.9986 10.4383 91.1698 10.4383ZM91.1698 7.08453C91.9034 7.08453 92.4736 7.70559 92.4736 8.442C92.4736 9.1784 91.9034 9.81721 91.1698 9.81721C90.4361 9.81721 89.866 9.19171 89.866 8.442C89.866 7.69228 90.4361 7.08453 91.1698 7.08453Z" fill="white"/>
<path d="M98.0113 10.4383C98.5461 10.4383 98.9969 10.221 99.324 9.81728V10.3496H100V4.99072H99.324V7.10678C99.0014 6.70309 98.5461 6.46353 97.9981 6.46353C96.9108 6.46353 96.1064 7.34633 96.1064 8.4465C96.1064 9.54668 96.902 10.4428 98.0113 10.4428V10.4383ZM98.0821 7.0846C98.8732 7.0846 99.3726 7.70566 99.3726 8.44207C99.3726 9.17847 98.8732 9.81728 98.0821 9.81728C97.2909 9.81728 96.7915 9.19178 96.7915 8.44207C96.7915 7.69235 97.2909 7.0846 98.0821 7.0846Z" fill="white"/>
<path d="M102.798 10.4383C103.96 10.4383 104.778 9.55548 104.778 8.442C104.778 7.32852 103.96 6.45459 102.798 6.45459C101.636 6.45459 100.809 7.35513 100.809 8.442C100.809 9.52886 101.627 10.4383 102.798 10.4383ZM102.798 7.08453C103.532 7.08453 104.102 7.70559 104.102 8.442C104.102 9.1784 103.532 9.81721 102.798 9.81721C102.064 9.81721 101.494 9.19171 101.494 8.442C101.494 7.69228 102.064 7.08453 102.798 7.08453Z" fill="white"/>
<path d="M106.661 9.83505C106.338 9.83505 105.954 9.6576 105.724 9.23172L105.238 9.6088C105.547 10.1811 106.113 10.4295 106.639 10.4295C107.452 10.4295 108 9.9149 108 9.27609C108 8.8236 107.753 8.52637 107.359 8.32231C107.063 8.16704 106.687 8.02509 106.436 7.90531C106.197 7.78997 106.117 7.61252 106.117 7.45725C106.117 7.2177 106.303 6.99589 106.661 6.99589C106.944 6.99589 107.253 7.11567 107.474 7.43507L107.903 7.02251C107.642 6.61438 107.16 6.41919 106.705 6.41919C105.945 6.41919 105.472 6.88055 105.472 7.47944C105.472 7.82546 105.649 8.18035 106.051 8.40216C106.29 8.53081 106.758 8.69938 106.988 8.82803C107.187 8.9345 107.333 9.0809 107.333 9.31158C107.333 9.58662 107.076 9.83505 106.661 9.83505Z" fill="white"/>
<path d="M66.6979 26.3597C65.6902 26.3597 65.0095 27.1094 65.0095 28.1031C65.0095 28.977 65.5266 29.8643 66.7907 29.8643C67.3829 29.8643 67.9221 29.6336 68.2227 29.394L67.9663 28.9371C67.6613 29.1634 67.2017 29.3098 66.7995 29.3098C66.057 29.3098 65.7167 28.8661 65.6283 28.3515H68.2889C68.2934 28.2717 68.3066 28.183 68.3066 28.0454C68.3066 26.9852 67.6216 26.3508 66.6934 26.3508L66.6979 26.3597ZM65.6327 27.8414C65.7299 27.2913 66.1365 26.892 66.6979 26.892C67.2592 26.892 67.6569 27.2469 67.6923 27.8414H65.6327Z" fill="white"/>
<path d="M72.7971 26.9276C72.5098 26.5727 72.112 26.3597 71.6258 26.3597C70.6667 26.3597 69.9596 27.1405 69.9596 28.112C69.9596 29.0835 70.6623 29.8732 71.6391 29.8732C72.112 29.8732 72.5098 29.678 72.7971 29.3231V29.7933H73.3937V25.0599H72.7971V26.9276ZM71.701 29.3231C71.0026 29.3231 70.5607 28.773 70.5607 28.112C70.5607 27.451 71.0026 26.9143 71.701 26.9143C72.3993 26.9143 72.8412 27.4643 72.8412 28.112C72.8412 28.7597 72.3993 29.3231 71.701 29.3231Z" fill="white"/>
<path d="M75.6743 26.3553C74.6401 26.3553 73.9197 27.1494 73.9197 28.1121C73.9197 29.0747 74.6401 29.8732 75.6743 29.8732C76.7085 29.8732 77.4245 29.0925 77.4245 28.1121C77.4245 27.1317 76.6997 26.3553 75.6743 26.3553ZM75.6743 29.3231C75.0246 29.3231 74.5208 28.7731 74.5208 28.1121C74.5208 27.4511 75.0246 26.9143 75.6743 26.9143C76.324 26.9143 76.8278 27.4644 76.8278 28.1121C76.8278 28.7598 76.324 29.3231 75.6743 29.3231Z" fill="white"/>
<path d="M80.9337 26.3553C80.4608 26.3553 80.0763 26.5638 79.873 26.9187V26.4441H79.2896V29.7934H79.8862V27.9391C79.8862 27.3402 80.2663 26.9143 80.8099 26.9143C81.2961 26.9143 81.6629 27.2559 81.6629 27.9346V29.7978H82.2552V27.7661C82.2552 26.8078 81.6276 26.3598 80.9337 26.3598V26.3553Z" fill="white"/>
<path d="M84.4961 26.3553C83.4619 26.3553 82.7415 27.1494 82.7415 28.1121C82.7415 29.0747 83.4619 29.8732 84.4961 29.8732C85.5303 29.8732 86.2463 29.0925 86.2463 28.1121C86.2463 27.1317 85.5214 26.3553 84.4961 26.3553ZM84.4961 29.3231C83.8464 29.3231 83.3425 28.7731 83.3425 28.1121C83.3425 27.4511 83.8464 26.9143 84.4961 26.9143C85.1458 26.9143 85.6496 27.4644 85.6496 28.1121C85.6496 28.7598 85.1458 29.3231 84.4961 29.3231Z" fill="white"/>
<path d="M88.1245 29.3231C87.7268 29.3231 87.5853 29.0658 87.5853 28.6622V26.9542H88.7698V26.4396H87.5853V25.2507H87.0019V26.4396H86.4053V26.9542H86.9975V28.6178C86.9975 29.3986 87.3423 29.8732 88.0627 29.8732C88.3809 29.8732 88.7079 29.7801 88.951 29.5938L88.7256 29.1324C88.5444 29.2433 88.3411 29.3276 88.129 29.3276L88.1245 29.3231Z" fill="white"/>
<path d="M91.8724 26.9276C91.5807 26.5727 91.1829 26.3597 90.6968 26.3597C89.7377 26.3597 89.0261 27.0917 89.0261 28.0899C89.0261 29.088 89.7377 29.8732 90.6968 29.8732C91.1829 29.8732 91.5896 29.6736 91.8724 29.3187V29.7933H92.4426V26.444H91.8724V26.932V26.9276ZM90.7631 29.3231C90.0648 29.3231 89.6316 28.773 89.6316 28.1165C89.6316 27.4599 90.0692 26.9098 90.7631 26.9098C91.457 26.9098 91.9078 27.4599 91.9078 28.1076C91.9078 28.7553 91.457 29.3187 90.7631 29.3187V29.3231Z" fill="white"/>
<path d="M93.742 26.9364V26.444H93.1763V29.7933H93.7729V28.0189C93.7729 27.2603 94.1884 26.932 94.6878 26.932C94.8071 26.932 94.9176 26.9498 95.037 26.9897L95.0944 26.4085C94.953 26.3731 94.8248 26.3597 94.7011 26.3597C94.2635 26.3597 93.9409 26.5416 93.742 26.9409V26.9364Z" fill="white"/>
<path d="M95.7176 25.1088C95.4745 25.1088 95.28 25.2951 95.28 25.5346C95.28 25.7831 95.4745 25.9649 95.7176 25.9649C95.9607 25.9649 96.1419 25.7831 96.1419 25.5346C96.1419 25.2995 95.9562 25.1088 95.7176 25.1088Z" fill="white"/>
<path d="M96.0093 26.4396H95.4126V29.7889H96.0093V26.4396Z" fill="white"/>
<path d="M99.3771 26.9276C99.0854 26.5727 98.6876 26.3597 98.2014 26.3597C97.2423 26.3597 96.5308 27.0917 96.5308 28.0899C96.5308 29.088 97.2423 29.8732 98.2014 29.8732C98.6876 29.8732 99.0942 29.6736 99.3771 29.3187V29.7933H99.9516V26.444H99.3771V26.932V26.9276ZM98.2677 29.3231C97.5694 29.3231 97.1363 28.773 97.1363 28.1165C97.1363 27.4599 97.5738 26.9098 98.2677 26.9098C98.9616 26.9098 99.4124 27.4599 99.4124 28.1076C99.4124 28.7553 98.9616 29.3187 98.2677 29.3187V29.3231Z" fill="white"/>
<path d="M103.319 26.9276C103.032 26.5727 102.634 26.3597 102.148 26.3597C101.189 26.3597 100.478 27.1405 100.478 28.112C100.478 29.0835 101.18 29.8732 102.157 29.8732C102.63 29.8732 103.028 29.678 103.315 29.3231V29.7933H103.912V25.0599H103.315V26.9276H103.319ZM102.223 29.3231C101.525 29.3231 101.083 28.773 101.083 28.112C101.083 27.451 101.525 26.9143 102.223 26.9143C102.922 26.9143 103.364 27.4643 103.364 28.112C103.364 28.7597 102.922 29.3231 102.223 29.3231Z" fill="white"/>
<path d="M106.197 26.3553C105.163 26.3553 104.442 27.1494 104.442 28.1121C104.442 29.0747 105.163 29.8732 106.197 29.8732C107.231 29.8732 107.947 29.0925 107.947 28.1121C107.947 27.1317 107.227 26.3553 106.197 26.3553ZM106.197 29.3231C105.547 29.3231 105.043 28.7731 105.043 28.1121C105.043 27.4511 105.547 26.9143 106.197 26.9143C106.846 26.9143 107.35 27.4644 107.35 28.1121C107.35 28.7598 106.846 29.3231 106.197 29.3231Z" fill="white"/>
<path d="M66.7111 16.2497V15.4645H65.2615V21.3291H66.773V18.5432C66.773 17.2612 67.405 16.7687 68.2006 16.7687C68.426 16.7687 68.6602 16.8131 68.8989 16.8885L69.0271 15.4335C68.7928 15.3492 68.5321 15.3048 68.3199 15.3048C67.6349 15.3048 67.0736 15.6065 66.7111 16.2542V16.2497Z" fill="white"/>
<path d="M72.4479 21.4623C73.5307 21.4623 74.4411 21.063 75.0025 20.6549L74.4014 19.5902C73.9064 19.9362 73.155 20.1802 72.5142 20.1802C71.5153 20.1802 70.9894 19.6434 70.8082 18.9336H75.1969C75.2279 18.7163 75.25 18.5033 75.25 18.2638C75.25 16.4006 73.9859 15.3137 72.3241 15.3137C70.5032 15.3137 69.2789 16.6357 69.2789 18.3924C69.2789 19.9628 70.2645 21.4578 72.4523 21.4578L72.4479 21.4623ZM72.3197 16.5736C73.0931 16.5736 73.6368 17.0483 73.7782 17.8024H70.8082C70.9894 17.0394 71.5595 16.5736 72.3197 16.5736Z" fill="white"/>
<path d="M82.1536 20.748V15.4646H80.7614V16.1122C80.3415 15.6509 79.7537 15.3137 78.9581 15.3137C77.2963 15.3137 75.9792 16.5647 75.9792 18.3392C75.9792 20.1137 77.1681 21.3425 78.8963 21.3425C79.7095 21.3425 80.2885 21.0408 80.6995 20.5883V20.89C80.6995 21.8038 80.0675 22.5136 78.8742 22.5136C78.0919 22.5136 77.3538 22.1809 76.8278 21.826L76.2356 22.9661C76.9206 23.4585 77.8886 23.8179 78.9184 23.8179C80.7967 23.8179 82.158 22.6556 82.158 20.748H82.1536ZM79.1172 20.0161C78.1847 20.0161 77.4996 19.3063 77.4996 18.3481C77.4996 17.3899 78.1847 16.7022 79.1172 16.7022C80.0498 16.7022 80.7349 17.4032 80.7349 18.3481C80.7349 19.293 80.0498 20.0161 79.1172 20.0161Z" fill="white"/>
<path d="M84.3102 12.9448C83.7843 12.9448 83.3777 13.3441 83.3777 13.872C83.3777 14.3999 83.7843 14.808 84.3102 14.808C84.8362 14.808 85.2428 14.4088 85.2428 13.872C85.2428 13.3352 84.8362 12.9448 84.3102 12.9448Z" fill="white"/>
<path d="M85.0618 15.4645H83.5503V21.3291H85.0618V15.4645Z" fill="white"/>
<path d="M88.3677 21.48C89.7953 21.48 90.6969 20.6637 90.6969 19.5946C90.6969 18.907 90.3654 18.4545 89.7113 18.1085C89.2517 17.8734 88.6727 17.6782 88.3058 17.5362C87.9213 17.4076 87.7932 17.2035 87.7932 16.9994C87.7932 16.7288 88.0407 16.5026 88.4561 16.5026C88.8716 16.5026 89.3577 16.6623 89.7953 17.0837L90.5466 16.1033C89.9765 15.5133 89.2472 15.2649 88.4959 15.2649C87.1656 15.2649 86.3081 16.0057 86.3081 17.0305C86.3081 17.7092 86.6529 18.2238 87.3158 18.5477C87.6694 18.7295 88.4429 18.978 88.7655 19.1288C89.0439 19.2575 89.1854 19.4172 89.1854 19.6345C89.1854 19.9672 88.8406 20.2068 88.381 20.2068C87.7932 20.2068 87.1788 19.8918 86.7634 19.3861L85.959 20.3443C86.5468 21.0985 87.4396 21.4755 88.3721 21.4755L88.3677 21.48Z" fill="white"/>
<path d="M95.8636 20.9876L95.4128 19.7942C95.1255 19.9539 94.8117 20.0959 94.436 20.0959C93.8658 20.0959 93.6095 19.741 93.6095 19.0623V16.7377H95.5409V15.469H93.6095V13.3928H92.1068V15.469H91.1433V16.7377H92.098V19.1599C92.098 20.677 92.7963 21.4755 94.1355 21.4755C94.7365 21.4755 95.3995 21.3025 95.8636 20.992V20.9876Z" fill="white"/>
<path d="M99.3152 21.48C101.18 21.48 102.444 20.1003 102.444 18.3924C102.444 16.6845 101.18 15.3048 99.3152 15.3048C97.4501 15.3048 96.1816 16.7022 96.1816 18.3924C96.1816 20.0826 97.4457 21.48 99.3152 21.48ZM99.3152 16.7199C100.226 16.7199 100.933 17.4608 100.933 18.388C100.933 19.3151 100.226 20.0648 99.3152 20.0648C98.4048 20.0648 97.6976 19.324 97.6976 18.388C97.6976 17.4519 98.4048 16.7199 99.3152 16.7199Z" fill="white"/>
<path d="M105.432 20.2112C104.844 20.2112 104.23 19.8963 103.815 19.3905L103.01 20.3488C103.602 21.1029 104.491 21.48 105.423 21.48C106.851 21.48 107.753 20.6637 107.753 19.5946C107.753 18.907 107.421 18.4545 106.767 18.1085C106.307 17.8734 105.728 17.6782 105.362 17.5362C104.977 17.4076 104.849 17.2035 104.849 16.9994C104.849 16.7288 105.096 16.5026 105.512 16.5026C105.927 16.5026 106.413 16.6623 106.851 17.0837L107.602 16.1033C107.032 15.5133 106.303 15.2649 105.556 15.2649C104.226 15.2649 103.368 16.0057 103.368 17.0305C103.368 17.7092 103.713 18.2238 104.376 18.5477C104.73 18.7295 105.503 18.978 105.826 19.1288C106.104 19.2575 106.245 19.4172 106.245 19.6345C106.245 19.9672 105.901 20.2068 105.441 20.2068L105.432 20.2112Z" fill="white"/>
</g>
<defs>
<clipPath id="clip0_4_6644">
<rect width="108" height="31" fill="white"/>
</clipPath>
</defs>
</svg>
